<svg id="Capa_1" data-name="Capa 1" xmlns="http://www.w3.org/2000/svg" viewBox="0 0 107.36 30.77"><defs><style>.cls-1{fill:#d5e2ba;}.cls-2{fill:#3f2d20;}.cls-3{fill:#9faa7b;}.cls-4{fill:#73482c;}.cls-5{fill:#57584d;}</style></defs><title>icon-Mesa de trabajo 1</title><path class="cls-1" d="M12.34,7.8c-.71.23-1.66.47-2.34.69L7.42,3.43C7.2.71,10.74.36,11.84,2.11,12,4.06,12.22,5.85,12.34,7.8Z"/><path class="cls-2" d="M22.2,8.76l1.36-.91C23.41,6,22.6,5,20.88,4.93l-2,2.85C20,8,21.31,9.05,22.2,8.76Z"/><path class="cls-3" d="M18.06,7.65l2.21-3.21C20.08,2,18.2,1.66,16.78,2.72,16.39,4.31,16,5.91,15.6,7.5A16.76,16.76,0,0,1,18.06,7.65Z"/><path class="cls-4" d="M14.9,7.46c.42-1.69.84-3.37,1.24-5.1C15,.42,13.9.35,12.45,1.94c.23,1.91.27,3.83.5,5.68l.36,0C13.84,7.57,14.37,7.5,14.9,7.46Z"/><path class="cls-4" d="M9.26,8.87l.22-.17-2.56-5A2.11,2.11,0,0,0,3.92,6c1.32,1.2,2.59,2.4,3.88,3.55C8.27,9.33,8.75,9.09,9.26,8.87Z"/><path class="cls-3" d="M7.32,9.94,3.62,6.55c-2,.14-2.93,1-1.91,3.38l3.65,1.44A16.39,16.39,0,0,1,7.32,9.94Z"/><path class="cls-5" d="M23.61,11.26c-.93-.93-1.83-1.11-2.77-.35-.68.78-.22,1.32.07,1.89a4.19,4.19,0,0,1-2.18-.07c-5.74-1.26-7.59,2.48-13.14,1a1.11,1.11,0,0,0-.31-1.13c-.93-.76-1.83-.58-2.76.34-.72.88.39,1.71.9,1.6a1.05,1.05,0,0,0,.32.8c-.16.5,2.51.95,3.87,1.12a2.73,2.73,0,0,0,.22.79,1.22,1.22,0,0,0,2.12.44c0-.36-.15-.75-.15-1.1a32.82,32.82,0,0,0,9.28-1.35c0,.36-.09.73-.13,1.09a1.42,1.42,0,0,0,2.2-.61c-.11-.33-.21-.66-.32-1,1.56-.54,2.51-1.19,2.36-1.92A1,1,0,0,0,23.61,11.26Z"/><path class="cls-5" d="M41.82,14H40.54V12L42,11.87l.32-2.5H44.6v2.5h2.25V14H44.6V17.8A1.66,1.66,0,0,0,44.93,19a1.16,1.16,0,0,0,.88.35,1.88,1.88,0,0,0,.46-.06,3.68,3.68,0,0,0,.43-.13l.43,2c-.25.08-.55.15-.89.23a5.88,5.88,0,0,1-1.19.11,3.84,3.84,0,0,1-1.48-.26,2.7,2.7,0,0,1-1-.74A3,3,0,0,1,42,19.32a5.66,5.66,0,0,1-.18-1.48Z"/><path class="cls-5" d="M50.33,10.75a1.63,1.63,0,0,1-1.16-.41,1.34,1.34,0,0,1-.45-1,1.31,1.31,0,0,1,.45-1,1.88,1.88,0,0,1,2.32,0,1.34,1.34,0,0,1,.44,1,1.37,1.37,0,0,1-.44,1A1.63,1.63,0,0,1,50.33,10.75Zm-1.39,1.38h2.78v9.38H48.94Z"/><path class="cls-5" d="M53.61,16.82A5.35,5.35,0,0,1,54,14.77a5,5,0,0,1,1-1.55,4.24,4.24,0,0,1,1.41-1A4.1,4.1,0,0,1,58,11.91a4.14,4.14,0,0,1,1.75.34,3.41,3.41,0,0,1,1.24.94,3.84,3.84,0,0,1,.75,1.43A6.33,6.33,0,0,1,62,16.4a6.77,6.77,0,0,1,0,.69c0,.21-.05.37-.08.49H56.3a2.34,2.34,0,0,0,.84,1.56,2.62,2.62,0,0,0,1.6.48,3.82,3.82,0,0,0,2-.63l.93,1.69a6.58,6.58,0,0,1-1.6.77,5.59,5.59,0,0,1-1.73.28,5.22,5.22,0,0,1-1.87-.33,4.24,4.24,0,0,1-1.51-1,4.44,4.44,0,0,1-1-1.54A5.63,5.63,0,0,1,53.61,16.82Zm6-1a2.25,2.25,0,0,0-.36-1.33A1.36,1.36,0,0,0,58.09,14a1.69,1.69,0,0,0-1.16.45,2.27,2.27,0,0,0-.65,1.39Z"/><path class="cls-5" d="M74.6,16.82a6,6,0,0,1,.33-2.06,4.87,4.87,0,0,1,.87-1.54,3.65,3.65,0,0,1,1.25-1,3.24,3.24,0,0,1,1.44-.34,2.8,2.8,0,0,1,1.31.26,4.92,4.92,0,0,1,1,.72l-.11-1.44V8.26h2.77V21.51H81.2L81,20.58h-.08a4.36,4.36,0,0,1-1.15.82,3,3,0,0,1-1.34.33,3.55,3.55,0,0,1-1.58-.34,3.26,3.26,0,0,1-1.21-1,4.38,4.38,0,0,1-.78-1.54A7.19,7.19,0,0,1,74.6,16.82Zm2.85,0a3.58,3.58,0,0,0,.45,2,1.42,1.42,0,0,0,1.25.65,1.88,1.88,0,0,0,.83-.19,2.27,2.27,0,0,0,.71-.66V14.78a2.17,2.17,0,0,0-.78-.47,2.37,2.37,0,0,0-.77-.14,1.5,1.5,0,0,0-1.18.64A3.12,3.12,0,0,0,77.45,16.78Z"/><path class="cls-5" d="M87.3,10.75a1.62,1.62,0,0,1-1.15-.41,1.34,1.34,0,0,1-.45-1,1.31,1.31,0,0,1,.45-1,1.66,1.66,0,0,1,1.15-.4,1.64,1.64,0,0,1,1.16.4,1.31,1.31,0,0,1,.45,1,1.34,1.34,0,0,1-.45,1A1.6,1.6,0,0,1,87.3,10.75Zm-1.38,1.38H88.7v9.38H85.92Z"/><path class="cls-5" d="M91.52,14.31H90.23V12.25l1.44-.12L92,9.64H94.3v2.49h2.25v2.18H94.3v3.76a1.62,1.62,0,0,0,.33,1.14,1.16,1.16,0,0,0,.88.35A1.88,1.88,0,0,0,96,19.5a2.08,2.08,0,0,0,.42-.13l.44,2a8.71,8.71,0,0,1-.89.23,5.3,5.3,0,0,1-1.19.11,3.63,3.63,0,0,1-1.48-.26,2.63,2.63,0,0,1-1-.74,3,3,0,0,1-.56-1.14,5.74,5.74,0,0,1-.18-1.49Z"/><path class="cls-5" d="M97.81,18.9a2.65,2.65,0,0,1,1.25-2.31,9.26,9.26,0,0,1,4-1.11,1.59,1.59,0,0,0-.38-1,1.42,1.42,0,0,0-1.1-.37,3.48,3.48,0,0,0-1.21.22,7.92,7.92,0,0,0-1.28.63l-1-1.84a9.9,9.9,0,0,1,1.9-.88,6.39,6.39,0,0,1,2.11-.34,3.58,3.58,0,0,1,2.77,1,4.55,4.55,0,0,1,1,3.2v5.37H103.6l-.21-1h-.06a5.69,5.69,0,0,1-1.27.86,3.3,3.3,0,0,1-1.47.33,3,3,0,0,1-1.15-.21,2.58,2.58,0,0,1-.87-.61A2.74,2.74,0,0,1,98,20,3.18,3.18,0,0,1,97.81,18.9Zm2.65-.21a.79.79,0,0,0,.29.67,1.28,1.28,0,0,0,.79.22,1.57,1.57,0,0,0,.83-.21,4.68,4.68,0,0,0,.72-.58V17.14a4.93,4.93,0,0,0-2.06.61A1.13,1.13,0,0,0,100.46,18.69Z"/><path class="cls-5" d="M30.08,16.34V14.4H29.4V13.23l.77-.06.18-1.32h1.3v1.32h1.19V14.4H31.65v1.92c0,.55.27.77.64.77a2,2,0,0,0,.46-.08L33,18.14a3.75,3.75,0,0,1-1.14.18C30.59,18.32,30.08,17.53,30.08,16.34Z"/><path class="cls-5" d="M33.76,16.28V13.17h1.57v2.92c0,.7.19.89.59.89a.93.93,0,0,0,.83-.51v-3.3h1.58v5H37.05l-.12-.69h0a2,2,0,0,1-1.58.81C34.23,18.32,33.76,17.54,33.76,16.28Z"/><path class="cls-5" d="M70.22,16.7,73,14.77c.11-1.11-.31-1.66-1.31-1.57l-1.71,2.65A2.65,2.65,0,0,1,70.22,16.7Z"/><path class="cls-5" d="M70.25,17.1a2.46,2.46,0,0,1,0,.28v1.1l3.26-1.11c.47-1,.24-2-.41-2.29Z"/><path class="cls-5" d="M73.54,19.92l-3.27,0v1.55h3.27A1.81,1.81,0,0,0,73.54,19.92Z"/><path class="cls-5" d="M70.27,19.91l3.27.05a3,3,0,0,0,0-2.63l-3.27,1.11Z"/><path class="cls-5" d="M66.53,16.76l-2.74-1.92c-.1-1.11.31-1.67,1.32-1.57l1.71,2.64A2.43,2.43,0,0,0,66.53,16.76Z"/><path class="cls-5" d="M71.29,13a1.13,1.13,0,0,0-1.9-.67l-.29,2.92,0,0a1.94,1.94,0,0,1,.58.32Z"/><path class="cls-5" d="M66.48,17.25a2.83,2.83,0,0,0,0,.29v1.05l-3.25-1.1c-.48-1-.25-1.92.4-2.25Z"/><path class="cls-5" d="M69.13,12.31c0-.75-1.4-.75-1.41,0L68,15.19a3.44,3.44,0,0,1,.46,0,3.59,3.59,0,0,1,.47,0Z"/><path class="cls-5" d="M63.19,20.09l3.27,0v1.54H63.19A1.79,1.79,0,0,1,63.19,20.09Z"/><path class="cls-5" d="M66.46,20.07l-3.27,0a3,3,0,0,1,0-2.66l3.27,1.11Z"/><path class="cls-5" d="M67.65,15.28l0-.21-.23-2.71a1.07,1.07,0,0,0-1.94.68l1.61,2.59a1.68,1.68,0,0,1,.58-.33h0Z"/><path class="cls-5" d="M1.66,19.84h.18l0,.51h0a1.5,1.5,0,0,1,1-.59.82.82,0,0,1,.88.67,1.66,1.66,0,0,1,1.11-.67c.63,0,.95.4.95,1.23v2.07H5.63V21c0-.71-.24-1.06-.76-1.06-.32,0-.63.22-1,.64v2.46H3.65V21c0-.71-.24-1.06-.76-1.06a1.51,1.51,0,0,0-1,.64v2.46H1.66Z"/><path class="cls-5" d="M7,21.91V19.84h.22v2c0,.71.23,1.05.77,1.05s.7-.21,1.09-.69v-2.4h.22v3.22H9.13l0-.55h0A1.48,1.48,0,0,1,8,23.14C7.33,23.14,7,22.74,7,21.91Z"/><path class="cls-5" d="M10.32,21.46a1.53,1.53,0,0,1,1.38-1.7c.75,0,1.22.53,1.22,1.48a1.7,1.7,0,0,1,0,.22H10.55a1.31,1.31,0,0,0,1.25,1.47,1.44,1.44,0,0,0,.89-.29l.09.19a1.68,1.68,0,0,1-1,.31A1.51,1.51,0,0,1,10.32,21.46Zm2.38-.2c0-.87-.39-1.3-1-1.3a1.26,1.26,0,0,0-1.15,1.3Z"/><path class="cls-5" d="M14.05,22.73h0l0,.33h-.19V18.21H14v2.08a1.83,1.83,0,0,1,1.13-.53c.87,0,1.29.65,1.29,1.64s-.65,1.74-1.42,1.74A1.59,1.59,0,0,1,14.05,22.73Zm2.16-1.33c0-.82-.29-1.44-1.08-1.44a1.78,1.78,0,0,0-1.1.56v2a1.61,1.61,0,0,0,1,.43C15.72,22.93,16.21,22.3,16.21,21.4Z"/><path class="cls-5" d="M17.43,22.7V18.21h.22v4.52c0,.14.05.2.14.2h.11l0,.19a.66.66,0,0,1-.18,0C17.55,23.14,17.43,23,17.43,22.7Z"/><path class="cls-5" d="M18.7,21.46a1.53,1.53,0,0,1,1.39-1.7c.74,0,1.21.53,1.21,1.48a1.7,1.7,0,0,1,0,.22H18.93a1.31,1.31,0,0,0,1.25,1.47,1.44,1.44,0,0,0,.89-.29l.1.19a1.74,1.74,0,0,1-1,.31A1.51,1.51,0,0,1,18.7,21.46Zm2.39-.2c0-.87-.4-1.3-1-1.3a1.26,1.26,0,0,0-1.16,1.3Z"/><path class="cls-5" d="M21.78,22.7l.14-.18a1.5,1.5,0,0,0,1,.41c.54,0,.82-.31.82-.67s-.43-.61-.81-.75-1-.36-1-.91.35-.84,1-.84a1.44,1.44,0,0,1,.89.33l-.13.16a1.3,1.3,0,0,0-.78-.29c-.53,0-.77.31-.77.62s.39.54.77.68,1.07.36,1.07,1a.93.93,0,0,1-1.05.9A1.89,1.89,0,0,1,21.78,22.7Z"/><path class="cls-5" d="M5.2,26.78a1.52,1.52,0,0,1,1.44-1.7,1.31,1.31,0,0,1,.94.4l-.14.16a1.15,1.15,0,0,0-.8-.36c-.68,0-1.21.61-1.21,1.5s.48,1.48,1.21,1.48a1.27,1.27,0,0,0,.89-.39l.13.16a1.53,1.53,0,0,1-1,.43A1.48,1.48,0,0,1,5.2,26.78Z"/><path class="cls-5" d="M8.09,26.78a1.51,1.51,0,0,1,1.42-1.7,1.51,1.51,0,0,1,1.43,1.7,1.5,1.5,0,0,1-1.43,1.68A1.5,1.5,0,0,1,8.09,26.78Zm2.63,0c0-.89-.52-1.5-1.21-1.5s-1.19.61-1.19,1.5.51,1.48,1.19,1.48A1.31,1.31,0,0,0,10.72,26.78Z"/><path class="cls-5" d="M11.94,25.16h.19l0,.51h0a1.6,1.6,0,0,1,1.12-.59c.65,0,1,.4,1,1.23v2.07H14v-2c0-.71-.23-1.06-.78-1.06-.4,0-.69.22-1.1.64v2.46h-.22Z"/><path class="cls-5" d="M16.82,25.16H17l0,.42h0a1.94,1.94,0,0,1,1.11-.5c.87,0,1.29.65,1.29,1.64s-.66,1.74-1.42,1.74a1.75,1.75,0,0,1-1-.4v1.8h-.22ZM17,27.82a1.65,1.65,0,0,0,1,.44c.69,0,1.18-.64,1.18-1.54s-.29-1.44-1.08-1.44a1.8,1.8,0,0,0-1.1.56Z"/><path class="cls-5" d="M20.11,27.58c0-.71.65-1,2.09-1.21,0-.52-.11-1.09-.78-1.09a1.81,1.81,0,0,0-1.05.39l-.11-.17a2.07,2.07,0,0,1,1.18-.42c.75,0,1,.56,1,1.22v2.08h-.18l0-.43h0a1.92,1.92,0,0,1-1.16.51A.83.83,0,0,1,20.11,27.58Zm2.09.13V26.56c-1.39.15-1.87.48-1.87,1a.64.64,0,0,0,.72.68A1.78,1.78,0,0,0,22.2,27.71Z"/><path class="cls-5" d="M23.2,28l.14-.18a1.5,1.5,0,0,0,1,.42c.54,0,.81-.32.81-.68s-.42-.61-.8-.75-1-.36-1-.91.35-.84,1-.84a1.47,1.47,0,0,1,.89.33l-.12.17a1.27,1.27,0,0,0-.79-.3c-.53,0-.76.31-.76.63s.39.53.77.67,1.07.36,1.07,1a.93.93,0,0,1-1.05.89A1.81,1.81,0,0,1,23.2,28Z"/><path class="cls-5" d="M26.19,24.12a.22.22,0,0,1,.23-.24.24.24,0,1,1,0,.47A.22.22,0,0,1,26.19,24.12Zm.11,1h.22v3.22H26.3Z"/><path class="cls-5" d="M27.52,26.78a1.45,1.45,0,1,1,2.85,0,1.44,1.44,0,1,1-2.85,0Zm2.63,0c0-.89-.52-1.5-1.21-1.5s-1.19.61-1.19,1.5.51,1.48,1.19,1.48A1.31,1.31,0,0,0,30.15,26.78ZM28.59,24.4l.9-1,.16.14-.93,1Z"/><path class="cls-5" d="M31.37,25.16h.19l0,.51h0a1.6,1.6,0,0,1,1.11-.59c.66,0,1,.4,1,1.23v2.07h-.22v-2c0-.71-.23-1.06-.78-1.06-.4,0-.69.22-1.1.64v2.46h-.22Z"/></svg>